:SAMPLES-PER-SECOND 30
:FULLY-SPECIFIED
:DEGREES
306
root  -6.62597 39.1022 39.8798 -6.74786 -6.30025 3.54727
RightUpLeg  -12.5179 -9.98585 -3.88678
RightLeg  27.2047 5.6738 -6.72858
RightFoot  -14.153 0.0576704 1.35218
RightToes  -5.82073e-011 -3.18055e-015 -2.98177e-016
Spine  9.95865 0.479275 -1.99782
Spine1  8.01474 0.980833 -2.16243
HEad  -15.9493 3.79577 1.90706
LeftShoulder1  -3.88251e-019 9.70628e-020 -3.87848e-018
LeftArm  -23.1958 45.4212 -77.0646
LeftForeArm  -0.333556 -20.6091 -0.878893
LeftHand  -0.930263 -6.25527 9.83945
RightShoulder  8.0206 10.767 37.4559
RightArm  9.08773 -39.1382 27.7928
RightForeArm  15.1397 22.7171 -12.5289
RightHand  -1.68387 7.84031 -14.7088
LeftUpLeg  -5.81264 -3.4112 -10.1996
LeftLeg  21.0382 3.00758 8.05316
LeftFoot  -10.8875 -0.0474168 0.936922
LeftToes  5.79026e-011 9.70705e-012 -3.73859e-011
307
root  -6.51538 39.1255 39.9365 -6.58351 -6.69214 3.24248
RightUpLeg  -12.7836 -9.1307 -3.40166
RightLeg  28.6998 4.74311 -7.65812
RightFoot  -12.7267 0.0347606 0.203724
RightToes  -5.82073e-011 -3.18055e-015 -2.98177e-016
Spine  10.1439 0.760434 -0.904799
Spine1  7.67174 1.55153 -3.01505
HEad  -16.7956 3.53544 1.64276
LeftShoulder1  -3.88251e-019 9.70628e-020 -3.87848e-018
LeftArm  -28.5717 47.6462 -75.0365
LeftForeArm  4.94319 -14.5198 -2.64741
LeftHand  -0.822694 -5.1447 9.65395
RightShoulder  7.9851 10.7541 37.3104
RightArm  0.429559 -39.7074 27.4026
RightForeArm  18.1926 14.5675 -7.83807
RightHand  -1.25088 5.86342 -12.8112
LeftUpLeg  -5.87495 -3.77231 -10.1255
LeftLeg  21.0286 3.7184 8.34358
LeftFoot  -10.8199 -0.0494851 1.02147
LeftToes  5.79026e-011 9.70705e-012 -3.73859e-011
308
root  -6.45273 39.1944 40.0435 -6.25581 -6.84919 2.90575
RightUpLeg  -12.1733 -8.09012 -2.91279
RightLeg  28.7954 6.72508 -6.49534
RightFoot  -10.3876 -0.00737773 1.36515
RightToes  -5.82073e-011 -3.18055e-015 -2.98177e-016
Spine  10.0056 0.858744 -0.152333
Spine1  7.36791 1.83721 -3.78646
HEad  -17.3679 3.66344 1.26969
LeftShoulder1  -3.88251e-019 9.70628e-020 -3.87848e-018
LeftArm  -29.2736 50.9855 -72.7918
LeftForeArm  4.78389 -10.2634 -2.12986
LeftHand  -0.743858 -3.8438 9.99112
RightShoulder  7.9231 10.7259 37.0681
RightArm  -4.29262 -41.2129 26.2489
RightForeArm  18.2048 7.83292 -7.1246
RightHand  -0.757952 3.67415 -9.639
LeftUpLeg  -5.77397 -4.3107 -9.96154
LeftLeg  20.5367 4.4819 8.47789
LeftFoot  -10.5974 -0.0548684 1.20663
LeftToes  5.79026e-011 9.70705e-012 -3.73859e-011
309
root  -6.43804 39.2967 40.1777 -5.70658 -6.72435 2.6469
RightUpLeg  -10.7817 -7.28226 -2.52734
RightLeg  26.4797 7.81292 -5.36314
RightFoot  -8.82941 -0.100157 3.27224
RightToes  -5.82073e-011 -3.18055e-015 -2.98177e-016
Spine  9.74606 0.807164 -0.142523
Spine1  6.79565 1.71475 -3.70313
HEad  -17.7581 4.19595 1.10377
LeftShoulder1  -3.88251e-019 9.70628e-020 -3.87848e-018
LeftArm  -29.4648 55.3092 -69.8875
LeftForeArm  3.70579 -7.56055 -1.61674
LeftHand  -0.687741 -2.55909 10.7493
RightShoulder  7.84592 10.6868 36.7737
RightArm  -5.32203 -43.6278 23.6275
RightForeArm  18.1544 4.42044 -7.72888
RightHand  -0.42731 2.1221 -6.5756
LeftUpLeg  -5.65383 -4.61467 -9.74653
LeftLeg  19.5918 4.70486 8.2193
LeftFoot  -10.2149 -0.0618936 1.36488
LeftToes  5.79026e-011 9.70705e-012 -3.73859e-011
310
root  -6.45117 39.4374 40.3167 -4.8031 -6.29921 2.2902
RightUpLeg  -9.14177 -7.28918 -2.02917
RightLeg  22.3674 6.94576 -5.04706
RightFoot  -8.5565 -0.137527 3.92616
RightToes  -5.82073e-011 -3.18055e-015 -2.98177e-016
Spine  9.24938 0.611169 -0.311463
Spine1  6.22641 1.29063 -2.55294
HEad  -18.3284 4.84112 1.19798
LeftShoulder1  -3.88251e-019 9.70628e-020 -3.87848e-018
LeftArm  -28.4007 59.8882 -66.0706
LeftForeArm  1.84732 -6.10842 -1.20414
LeftHand  -0.589384 -1.47101 10.7145
RightShoulder  7.78867 10.6481 36.5761
RightArm  -3.41785 -46.5603 19.109
RightForeArm  19.0361 4.54915 -8.03826
RightHand  -0.302065 1.63878 -4.96426
LeftUpLeg  -5.71224 -4.88043 -9.34782
LeftLeg  18.241 4.54025 7.664
LeftFoot  -9.59939 -0.0736828 1.56517
LeftToes  5.79026e-011 9.70705e-012 -3.73859e-011
311
root  -6.47854 39.5595 40.4308 -3.64509 -5.84781 1.78988
RightUpLeg  -8.16483 -7.43311 -1.40399
RightLeg  18.8446 5.68051 -4.68016
RightFoot  -8.67183 -0.108751 3.318
RightToes  -5.82073e-011 -3.18055e-015 -2.98177e-016
Spine  8.40754 0.419295 -0.0303815
Spine1  6.21629 0.966979 -1.49554
HEad  -19.5279 5.2336 1.37936
LeftShoulder1  -3.88251e-019 9.70628e-020 -3.87848e-018
LeftArm  -25.7912 63.8637 -61.1765
LeftForeArm  -0.120283 -5.78386 -0.832122
LeftHand  -0.47094 -0.68293 9.75739
RightShoulder  7.7935 10.6294 36.6422
RightArm  1.29327 -49.4618 13.091
RightForeArm  19.3394 7.30472 -7.75095
RightHand  -0.388711 2.07407 -5.95101
LeftUpLeg  -6.24677 -5.4278 -8.77269
LeftLeg  17.2137 4.59854 7.31361
LeftFoot  -9.04622 -0.0873974 1.78344
LeftToes  5.79026e-011 9.70705e-012 -3.73859e-011
